<svg width="192" height="192" viewBox="0 0 192 192" fill="none" xmlns="http://www.w3.org/2000/svg">
<path d="M12.6952 105.277L40.9667 131.781C44.7335 135.312 49.5387 137.535 54.6688 138.118C59.799 138.702 64.9806 137.616 69.4442 135.02L183 68.9997L169.02 51.9137C165.394 47.4811 160.301 44.4915 154.663 43.485C149.025 42.4784 143.213 43.5212 138.277 46.425L105 65.9997L59.9998 50.9997L47.6256 56.303C46.6998 56.6997 45.8888 57.3231 45.2673 58.1158C44.6459 58.9084 44.234 59.8447 44.0696 60.8385C43.9052 61.8322 43.9936 62.8513 44.3266 63.8018C44.6597 64.7524 45.2266 65.6038 45.9753 66.2776L68.9998 86.9997L47.9998 98.9997L26.9998 89.9997L14.4353 95.3845C13.519 95.7772 12.715 96.392 12.096 97.1734C11.4769 97.9547 11.0623 98.8781 10.8896 99.8599C10.7169 100.842 10.7915 101.851 11.1067 102.797C11.422 103.743 11.9679 104.595 12.6952 105.277V105.277Z" stroke="black" stroke-width="12" stroke-linecap="round" stroke-linejoin="round"/>
</svg>
