<svg width="590" height="428" viewBox="0 0 590 428" fill="none" xmlns="http://www.w3.org/2000/svg">
<g filter="url(#filter0_dd)">
<path d="M488.415 307.69C483.854 296.219 470.745 289.004 436.806 276.651L377.586 255.096C375.893 254.48 374.504 253.236 373.705 251.622L299.148 100.891C297.201 96.2921 293.137 91.6203 290.125 90.5241L248.536 75.5861C245.49 74.4945 243.893 78.303 244.989 84.0386L269.141 204.3C270.217 209.656 265.017 214.125 259.884 212.257L176.012 181.73C174.011 181.001 172.45 179.402 171.771 177.383L139.951 82.7722C138.851 79.0133 135.494 75.0309 132.483 73.9351L100.952 62.4586C97.9117 61.3521 95.2524 63.9758 95.0157 68.3294L88.3382 140.478C87.9153 145.046 83.2852 147.98 78.9738 146.411L69.0474 142.798C53.6185 137.182 42.6313 162.598 52.5779 178.456C62.519 194.33 166.305 288.489 183.239 294.652L399.824 373.483C446.11 390.33 498.729 384.955 508.177 358.996C512.901 346.016 492.981 319.146 488.415 307.69Z" fill="url(#paint0_linear)"/>
</g>
<defs>
<filter id="filter0_dd" x="0" y="0" width="589.955" height="427.612" filterUnits="userSpaceOnUse" color-interpolation-filters="sRGB">
<feFlood flood-opacity="0" result="BackgroundImageFix"/>
<feColorMatrix in="SourceAlpha" type="matrix" values="0 0 0 0 0 0 0 0 0 0 0 0 0 0 0 0 0 0 127 0" result="hardAlpha"/>
<feOffset dx="8" dy="8"/>
<feGaussianBlur stdDeviation="6.5"/>
<feComposite in2="hardAlpha" operator="out"/>
<feColorMatrix type="matrix" values="0 0 0 0 0.819608 0 0 0 0 0.862745 0 0 0 0 0.87451 0 0 0 1 0"/>
<feBlend mode="normal" in2="BackgroundImageFix" result="effect1_dropShadow"/>
<feColorMatrix in="SourceAlpha" type="matrix" values="0 0 0 0 0 0 0 0 0 0 0 0 0 0 0 0 0 0 127 0" result="hardAlpha"/>
<feOffset dx="-8" dy="-8"/>
<feGaussianBlur stdDeviation="6.5"/>
<feComposite in2="hardAlpha" operator="out"/>
<feColorMatrix type="matrix" values="0 0 0 0 1 0 0 0 0 1 0 0 0 0 1 0 0 0 1 0"/>
<feBlend mode="normal" in2="effect1_dropShadow" result="effect2_dropShadow"/>
<feBlend mode="normal" in="SourceGraphic" in2="effect2_dropShadow" result="shape"/>
</filter>
<linearGradient id="paint0_linear" x1="60.0545" y1="128.301" x2="529.901" y2="299.311" gradientUnits="userSpaceOnUse">
<stop stop-color="#0361F5"/>
<stop offset="0.5" stop-color="#358FF8"/>
<stop offset="1" stop-color="#6FC9FC"/>
</linearGradient>
</defs>

</svg>
