<svg width="500" height="353" viewBox="0 0 500 353" fill="none" xmlns="http://www.w3.org/2000/svg">
<path d="M445.783 5.31386C439.534 -0.934601 429.404 -0.934632 423.155 5.31379L223.67 204.799C217.422 211.047 207.292 211.047 201.043 204.799L76.8438 80.6081C70.5957 74.3604 60.4661 74.3602 54.2177 80.6076L5.31545 129.502C-0.933761 135.751 -0.934149 145.882 5.31458 152.131L140.826 287.642L201.042 347.859C207.291 354.108 217.423 354.108 223.671 347.858L283.878 287.642L494.686 76.8457C500.934 70.5974 500.935 60.4665 494.686 54.218L445.783 5.31386Z" fill="url(#paint0_linear)"/>
<defs>
<linearGradient id="paint0_linear" x1="-6" y1="94.5" x2="474.5" y2="240" gradientUnits="userSpaceOnUse">
<stop stop-color="#DE6262"/>
<stop offset="1" stop-color="#FFB88C"/>
</linearGradient>
</defs>
</svg>
