<svg width="590" height="428" viewBox="0 0 590 428" fill="none" xmlns="http://www.w3.org/2000/svg">
<g filter="url(#filter0_dd)">
<path d="M503.506 161.386C492.639 155.531 477.959 158.43 444.02 170.782L384.8 192.337C383.108 192.953 381.243 192.893 379.594 192.17L225.592 124.628C221.144 122.356 215.028 121.39 212.016 122.486L170.555 137.775C167.52 138.897 168.745 142.841 173.271 146.531L269.076 223.132C273.342 226.543 272.232 233.308 267.098 235.177L183.226 265.704C181.225 266.432 179.001 266.21 177.184 265.1L91.9934 213.077C88.7346 210.905 83.6031 210.012 80.5922 211.108L49.061 222.584C46.0207 223.691 45.6701 227.41 48.2872 230.897L89.548 290.459C92.1608 294.23 90.4994 299.453 86.188 301.023L76.2616 304.636C60.8327 310.251 68.7531 336.783 86.5661 342.538C104.385 348.308 244.414 353.726 261.347 347.562L477.933 268.732C524.219 251.885 561.073 213.945 551.624 187.986C546.899 175.006 514.368 167.227 503.506 161.386Z" fill="url(#paint0_linear)"/>
</g>
<defs>
<filter id="filter0_dd" x="0" y="0" width="589.955" height="427.612" filterUnits="userSpaceOnUse" color-interpolation-filters="sRGB">
<feFlood flood-opacity="0" result="BackgroundImageFix"/>
<feColorMatrix in="SourceAlpha" type="matrix" values="0 0 0 0 0 0 0 0 0 0 0 0 0 0 0 0 0 0 127 0" result="hardAlpha"/>
<feOffset dx="8" dy="8"/>
<feGaussianBlur stdDeviation="6.5"/>
<feComposite in2="hardAlpha" operator="out"/>
<feColorMatrix type="matrix" values="0 0 0 0 0.819608 0 0 0 0 0.862745 0 0 0 0 0.87451 0 0 0 1 0"/>
<feBlend mode="normal" in2="BackgroundImageFix" result="effect1_dropShadow"/>
<feColorMatrix in="SourceAlpha" type="matrix" values="0 0 0 0 0 0 0 0 0 0 0 0 0 0 0 0 0 0 127 0" result="hardAlpha"/>
<feOffset dx="-8" dy="-8"/>
<feGaussianBlur stdDeviation="6.5"/>
<feComposite in2="hardAlpha" operator="out"/>
<feColorMatrix type="matrix" values="0 0 0 0 1 0 0 0 0 1 0 0 0 0 1 0 0 0 1 0"/>
<feBlend mode="normal" in2="effect1_dropShadow" result="effect2_dropShadow"/>
<feBlend mode="normal" in="SourceGraphic" in2="effect2_dropShadow" result="shape"/>
</filter>
<linearGradient id="paint0_linear" x1="60.0544" y1="299.311" x2="529.901" y2="128.301" gradientUnits="userSpaceOnUse">
<stop stop-color="#0361F5"/>
<stop offset="0.5" stop-color="#358FF8"/>
<stop offset="1" stop-color="#6FC9FC"/>
</linearGradient>
</defs>
</svg>
