<svg width="520" height="512" viewBox="0 0 520 512" fill="none" xmlns="http://www.w3.org/2000/svg">
<g clip-path="url(#clip0)" filter="url(#filter0_d)">
<g filter="url(#filter1_dd)">
<path d="M450.025 92.206C409.263 49.812 352.538 22.564 289.642 20.024C273.851 19.386 260.528 31.672 259.89 47.457C259.252 63.248 271.538 76.571 287.316 77.217C335.031 79.16 377.766 99.698 408.795 131.898C439.782 164.133 458.751 207.663 458.766 255.909C458.751 305.39 438.789 349.92 406.383 382.383C373.921 414.796 329.384 434.751 279.911 434.765C230.437 434.75 185.886 414.795 153.437 382.383C121.032 349.92 101.069 305.391 101.055 255.909C101.055 252.426 101.161 248.971 101.357 245.545L135.448 262.372C139.15 264.196 143.45 264.224 146.798 262.458C150.16 260.67 152.147 257.321 152.062 253.562L148.7 103.728C148.586 99.443 145.82 95.371 141.606 93.264C137.364 91.193 132.44 91.455 128.993 94.002L8.00801 182.45C4.95801 184.671 3.51001 188.281 4.14801 192.027C4.75801 195.786 7.39701 199.17 11.114 201.001L46.836 218.63C44.899 230.796 43.818 243.232 43.818 255.909C43.804 321.011 70.293 380.219 112.971 422.853C155.607 465.525 214.8 492.013 279.91 492C345.005 492.014 404.212 465.525 446.847 422.854C489.525 380.219 516.014 321.012 516.001 255.91C516.014 192.446 490.844 134.565 450.025 92.206Z" fill="url(#paint0_linear)"/>
</g>
</g>
<defs>
<filter id="filter0_d" x="0" y="0" width="520" height="520" filterUnits="userSpaceOnUse" color-interpolation-filters="sRGB">
<feFlood flood-opacity="0" result="BackgroundImageFix"/>
<feColorMatrix in="SourceAlpha" type="matrix" values="0 0 0 0 0 0 0 0 0 0 0 0 0 0 0 0 0 0 127 0" result="hardAlpha"/>
<feOffset dy="4"/>
<feGaussianBlur stdDeviation="2"/>
<feComposite in2="hardAlpha" operator="out"/>
<feColorMatrix type="matrix" values="0 0 0 0 0 0 0 0 0 0 0 0 0 0 0 0 0 0 0.25 0"/>
<feBlend mode="normal" in2="BackgroundImageFix" result="effect1_dropShadow"/>
<feBlend mode="normal" in="SourceGraphic" in2="effect1_dropShadow" result="shape"/>
</filter>
<filter id="filter1_dd" x="-17.0001" y="-0.999756" width="554.001" height="514" filterUnits="userSpaceOnUse" color-interpolation-filters="sRGB">
<feFlood flood-opacity="0" result="BackgroundImageFix"/>
<feColorMatrix in="SourceAlpha" type="matrix" values="0 0 0 0 0 0 0 0 0 0 0 0 0 0 0 0 0 0 127 0" result="hardAlpha"/>
<feOffset dx="8" dy="8"/>
<feGaussianBlur stdDeviation="6.5"/>
<feComposite in2="hardAlpha" operator="out"/>
<feColorMatrix type="matrix" values="0 0 0 0 0.819608 0 0 0 0 0.862745 0 0 0 0 0.87451 0 0 0 1 0"/>
<feBlend mode="normal" in2="BackgroundImageFix" result="effect1_dropShadow"/>
<feColorMatrix in="SourceAlpha" type="matrix" values="0 0 0 0 0 0 0 0 0 0 0 0 0 0 0 0 0 0 127 0" result="hardAlpha"/>
<feOffset dx="-8" dy="-8"/>
<feGaussianBlur stdDeviation="6.5"/>
<feComposite in2="hardAlpha" operator="out"/>
<feColorMatrix type="matrix" values="0 0 0 0 1 0 0 0 0 1 0 0 0 0 1 0 0 0 1 0"/>
<feBlend mode="normal" in2="effect1_dropShadow" result="effect2_dropShadow"/>
<feBlend mode="normal" in="SourceGraphic" in2="effect2_dropShadow" result="shape"/>
</filter>
<linearGradient id="paint0_linear" x1="3.99988" y1="19.8779" x2="606.786" y2="288.088" gradientUnits="userSpaceOnUse">
<stop stop-color="#5CE2FF"/>
<stop offset="1" stop-color="#2C70CE"/>
</linearGradient>
<clipPath id="clip0">
<rect width="512" height="512" fill="white" transform="translate(4)"/>
</clipPath>
</defs>
</svg>
