<svg width="1166" height="988" viewBox="0 0 1166 988" fill="none" xmlns="http://www.w3.org/2000/svg">
<g filter="url(#filter0_dd)">
<path d="M1047.53 467.313C1030.89 448.984 1000.82 444.501 927.35 444.736L796.221 445.155C794.437 445.161 792.718 444.486 791.416 443.267L542.674 210.532C535.776 203.264 524.776 197.318 518.256 197.338L428.362 197.999C421.78 198.052 421.351 206.278 427.404 216.258L563.105 435.233C565.99 439.888 562.654 445.903 557.178 445.92L359.274 446.554C357.159 446.56 355.155 445.611 353.821 443.97L225.516 286.162C220.818 279.884 211.646 274.742 205.128 274.763L136.87 274.981C130.288 275.002 127.009 281.742 129.559 290.052L168.857 438.392C170.031 442.824 166.698 447.17 162.113 447.185L131.229 447.284C97.8285 447.39 94.3332 502.515 124.307 525.349C154.281 548.215 417.848 653.016 454.507 652.898L923.37 651.398C1023.57 651.077 1120.56 604.813 1120.74 549.731C1120.82 522.189 1064.17 485.609 1047.53 467.313Z" fill="url(#paint0_linear)"/>
</g>
<defs>
<filter id="filter0_dd" x="0.708588" y="0" width="1165.27" height="987.564" filterUnits="userSpaceOnUse" color-interpolation-filters="sRGB">
<feFlood flood-opacity="0" result="BackgroundImageFix"/>
<feColorMatrix in="SourceAlpha" type="matrix" values="0 0 0 0 0 0 0 0 0 0 0 0 0 0 0 0 0 0 127 0" result="hardAlpha"/>
<feOffset dx="8" dy="8"/>
<feGaussianBlur stdDeviation="6.5"/>
<feComposite in2="hardAlpha" operator="out"/>
<feColorMatrix type="matrix" values="0 0 0 0 0.819608 0 0 0 0 0.862745 0 0 0 0 0.87451 0 0 0 1 0"/>
<feBlend mode="normal" in2="BackgroundImageFix" result="effect1_dropShadow"/>
<feColorMatrix in="SourceAlpha" type="matrix" values="0 0 0 0 0 0 0 0 0 0 0 0 0 0 0 0 0 0 127 0" result="hardAlpha"/>
<feOffset dx="-8" dy="-8"/>
<feGaussianBlur stdDeviation="6.5"/>
<feComposite in2="hardAlpha" operator="out"/>
<feColorMatrix type="matrix" values="0 0 0 0 1 0 0 0 0 1 0 0 0 0 1 0 0 0 1 0"/>
<feBlend mode="normal" in2="effect1_dropShadow" result="effect2_dropShadow"/>
<feBlend mode="normal" in="SourceGraphic" in2="effect2_dropShadow" result="shape"/>
</filter>
<linearGradient id="paint0_linear" x1="150.332" y1="243.782" x2="1016.36" y2="743.782" gradientUnits="userSpaceOnUse">
<stop stop-color="#0361F5"/>
<stop offset="0.5" stop-color="#358FF8"/>
<stop offset="1" stop-color="#6FC9FC"/>
</linearGradient>
</defs>
</svg>
