<svg width="1166" height="988" viewBox="0 0 1166 988" fill="none" xmlns="http://www.w3.org/2000/svg">
<g filter="url(#filter0_dd)">
<path d="M1046.82 467.313C1030.18 448.984 1000.11 444.501 926.642 444.736L795.512 445.155C793.728 445.161 792.009 444.486 790.707 443.267L541.965 210.532C535.067 203.264 524.067 197.318 517.547 197.338L427.653 197.999C421.072 198.052 420.642 206.278 426.695 216.258L562.397 435.233C565.281 439.888 561.945 445.903 556.469 445.92L358.566 446.554C356.451 446.56 354.446 445.611 353.112 443.97L224.807 286.162C220.109 279.884 210.938 274.742 204.42 274.763L136.161 274.981C129.58 275.002 126.3 281.742 128.85 290.052L168.149 438.392C169.323 442.824 165.99 447.17 161.404 447.185L130.52 447.284C97.1199 447.39 93.6246 502.515 123.598 525.349C153.572 548.215 417.14 653.016 453.798 652.898L922.661 651.398C1022.86 651.077 1119.85 604.813 1120.03 549.731C1120.11 522.189 1063.46 485.609 1046.82 467.313Z" fill="url(#paint0_linear)"/>
</g>
<defs>
<filter id="filter0_dd" x="0" y="0" width="1165.27" height="987.564" filterUnits="userSpaceOnUse" color-interpolation-filters="sRGB">
<feFlood flood-opacity="0" result="BackgroundImageFix"/>
<feColorMatrix in="SourceAlpha" type="matrix" values="0 0 0 0 0 0 0 0 0 0 0 0 0 0 0 0 0 0 127 0" result="hardAlpha"/>
<feOffset dx="8" dy="8"/>
<feGaussianBlur stdDeviation="6.5"/>
<feComposite in2="hardAlpha" operator="out"/>
<feColorMatrix type="matrix" values="0 0 0 0 0.819608 0 0 0 0 0.862745 0 0 0 0 0.87451 0 0 0 1 0"/>
<feBlend mode="normal" in2="BackgroundImageFix" result="effect1_dropShadow"/>
<feColorMatrix in="SourceAlpha" type="matrix" values="0 0 0 0 0 0 0 0 0 0 0 0 0 0 0 0 0 0 127 0" result="hardAlpha"/>
<feOffset dx="-8" dy="-8"/>
<feGaussianBlur stdDeviation="6.5"/>
<feComposite in2="hardAlpha" operator="out"/>
<feColorMatrix type="matrix" values="0 0 0 0 1 0 0 0 0 1 0 0 0 0 1 0 0 0 1 0"/>
<feBlend mode="normal" in2="effect1_dropShadow" result="effect2_dropShadow"/>
<feBlend mode="normal" in="SourceGraphic" in2="effect2_dropShadow" result="shape"/>
</filter>
<linearGradient id="paint0_linear" x1="149.623" y1="243.782" x2="1015.65" y2="743.782" gradientUnits="userSpaceOnUse">
<stop stop-color="#0361F5"/>
<stop offset="0.5" stop-color="#358FF8"/>
<stop offset="1" stop-color="#6FC9FC"/>
</linearGradient>
</defs>
</svg>
