<svg width="173" height="96" viewBox="0 0 173 96" fill="none" xmlns="http://www.w3.org/2000/svg">
<path d="M2.69518 62.2766L30.9667 88.7811C34.7335 92.3125 39.5387 94.5349 44.6688 95.1185C49.799 95.702 54.9806 94.6156 59.4442 92.0204L173 25.9997L159.02 8.91367C155.394 4.48109 150.301 1.49153 144.663 0.484961C139.025 -0.52161 133.213 0.521172 128.277 3.42496L94.9998 22.9997L49.9998 7.9997L37.6256 13.303C36.6998 13.6997 35.8888 14.3231 35.2673 15.1158C34.6459 15.9084 34.234 16.8447 34.0696 17.8385C33.9052 18.8322 33.9936 19.8513 34.3266 20.8018C34.6597 21.7524 35.2266 22.6038 35.9753 23.2776L58.9998 43.9997L37.9998 55.9997L16.9998 46.9997L4.43531 52.3845C3.51902 52.7772 2.71503 53.392 2.09596 54.1734C1.4769 54.9547 1.06227 55.8781 0.889563 56.8599C0.716851 57.8417 0.791493 58.851 1.10674 59.7968C1.42199 60.7425 1.96791 61.5948 2.69518 62.2766V62.2766Z" fill="url(#paint0_linear)"/>
<defs>
<linearGradient id="paint0_linear" x1="0.798828" y1="47.6918" x2="173" y2="47.6918" gradientUnits="userSpaceOnUse">
<stop stop-color="#EC008C"/>
<stop offset="1" stop-color="#FC6767"/>
</linearGradient>
</defs>
</svg>
