<svg width="185" height="108" viewBox="0 0 185 108" fill="none" xmlns="http://www.w3.org/2000/svg">
<path d="M8.69518 68.2766L36.9667 94.7811C40.7335 98.3125 45.5387 100.535 50.6688 101.118C55.799 101.702 60.9806 100.616 65.4442 98.0204L179 31.9997L165.02 14.9137C161.394 10.4811 156.301 7.49153 150.663 6.48496C145.025 5.47839 139.213 6.52117 134.277 9.42496L101 28.9997L55.9998 13.9997L43.6256 19.303C42.6998 19.6997 41.8888 20.3231 41.2673 21.1158C40.6459 21.9084 40.234 22.8447 40.0696 23.8385C39.9052 24.8322 39.9936 25.8513 40.3266 26.8018C40.6597 27.7524 41.2266 28.6038 41.9753 29.2776L64.9998 49.9997L43.9998 61.9997L22.9998 52.9997L10.4353 58.3845C9.51902 58.7772 8.71503 59.392 8.09596 60.1734C7.4769 60.9547 7.06227 61.8781 6.88956 62.8599C6.71685 63.8417 6.79149 64.851 7.10674 65.7968C7.42199 66.7425 7.96791 67.5948 8.69518 68.2766Z" stroke="black" stroke-width="12" stroke-linecap="round" stroke-linejoin="round"/>
</svg>
